<?xml version="1.0" encoding="UTF-8" standalone="no"?><!DOCTYPE svg PUBLIC "-//W3C//DTD SVG 1.1//EN" "http://www.w3.org/Graphics/SVG/1.1/DTD/svg11.dtd"><svg width="100%" height="100%" viewBox="0 0 5687 5728" version="1.1" xmlns="http://www.w3.org/2000/svg" xmlns:xlink="http://www.w3.org/1999/xlink" xml:space="preserve" xmlns:serif="http://www.serif.com/" style="fill-rule:evenodd;clip-rule:evenodd;stroke-linecap:round;stroke-linejoin:round;stroke-miterlimit:1.5;"><rect id="Artboard1" x="0" y="0" width="5687" height="5728" style="fill:none;"/><path d="M1915.27,384.346l-291.998,125.942l2095.46,4858.37l291.998,-125.942l-2095.46,-4858.37Z" style="fill:#ffcf32;stroke:#ffce32;stroke-width:87.5px;"/><path d="M3964.63,487.591l-294.384,-120.257l-2000.88,4898.07l294.384,120.257l2000.88,-4898.07Z" style="fill:#ffcf32;stroke:#ffce32;stroke-width:87.5px;"/><path d="M5315.68,1993.01l-123.804,-292.911l-4873.55,2059.9l123.804,292.911l4873.55,-2059.9Z" style="fill:#ffcf32;stroke:#ffce32;stroke-width:87.5px;"/><path d="M443.443,1697.44l-124.131,292.772l4871.24,2065.35l124.131,-292.772l-4871.24,-2065.35Z" style="fill:#ffcf32;stroke:#ffce32;stroke-width:87.5px;"/><path d="M2172.93,1442.85c748.208,-322.71 1617.66,22.741 1940.37,770.949c322.709,748.207 -22.741,1617.66 -770.949,1940.37c-748.208,322.709 -1617.66,-22.741 -1940.37,-770.949c-322.709,-748.208 22.742,-1617.66 770.949,-1940.37Z" style="fill:#ffcf32;stroke:#fff;stroke-width:333.33px;"/></svg>